<?xml version="1.0" standalone="no"?>
<!DOCTYPE svg PUBLIC "-//W3C//DTD SVG 20010904//EN"
 "http://www.w3.org/TR/2001/REC-SVG-20010904/DTD/svg10.dtd">
<svg version="1.0" xmlns="http://www.w3.org/2000/svg"
 width="400.000000pt" height="400.000000pt" viewBox="0 0 400.000000 400.000000"
 preserveAspectRatio="xMidYMid meet">
<metadata>
Created by potrace 1.14, written by Peter Selinger 2001-2017
</metadata>
<g transform="translate(0.000000,400.000000) scale(0.100000,-0.100000)"
fill="#000000" stroke="none">
<path d="M0 2000 l0 -2000 2000 0 2000 0 0 2000 0 2000 -2000 0 -2000 0 0
-2000z m1025 1255 c33 -8 94 -32 135 -52 93 -45 211 -159 254 -246 l29 -58 36
66 c51 92 99 146 181 200 101 67 193 98 311 103 112 5 187 -11 298 -63 92 -44
212 -160 255 -248 l29 -58 30 53 c72 127 192 227 330 276 96 33 244 41 337 18
225 -56 399 -230 455 -452 13 -53 15 -172 13 -890 l-3 -829 -23 -65 c-137
-379 -579 -534 -910 -318 -119 78 -221 215 -258 347 -11 42 -12 29 -13 -138
-1 -165 -3 -189 -22 -227 -26 -55 -75 -86 -134 -86 -61 0 -105 28 -133 82
l-22 45 2 608 3 608 80 34 c44 19 110 56 148 81 l67 46 0 123 0 122 -82 -81
c-128 -126 -248 -176 -424 -176 -146 0 -269 45 -383 140 -57 48 -151 170 -151
197 0 32 -21 17 -55 -41 -69 -119 -180 -212 -313 -263 -99 -38 -262 -44 -364
-13 -141 42 -253 122 -332 237 -235 345 -52 819 353 918 76 18 204 18 276 0z
m-684 -1120 c54 -58 160 -129 258 -171 l76 -33 3 -597 c2 -594 2 -598 -19
-642 -30 -62 -95 -102 -165 -102 -90 0 -149 36 -185 115 -18 38 -19 80 -19
758 0 394 2 717 5 717 2 0 23 -20 46 -45z m1145 -36 c27 -30 137 -100 206
-130 l59 -26 -1 -628 0 -628 -26 -34 c-36 -48 -67 -65 -118 -65 -50 -1 -99 23
-130 65 -21 28 -21 34 -24 748 -1 399 1 719 6 719 5 0 17 -9 28 -21z"/>
<path d="M815 2846 c-117 -52 -152 -206 -67 -299 56 -62 175 -75 246 -27 95
66 107 211 24 286 -57 52 -139 68 -203 40z"/>
<path d="M1931 2849 c-46 -18 -79 -49 -100 -94 -61 -130 25 -265 169 -265 58
0 93 15 131 57 40 42 49 66 49 128 0 110 -75 186 -183 184 -23 0 -53 -5 -66
-10z"/>
<path d="M2997 2829 c-31 -21 -54 -46 -71 -81 l-26 -52 0 -765 c0 -749 1 -767
21 -811 11 -24 28 -53 37 -64 24 -27 111 -66 147 -66 81 0 158 48 196 121 18
37 19 66 19 821 l0 783 -23 40 c-12 22 -44 55 -71 73 -43 28 -56 32 -115 32
-59 0 -74 -4 -114 -31z"/>
</g>
</svg>
